# xmcd
#
# Track frame offsets: 
#        150
#        14240
#        33016
#        45268
#        63148
#        83107
#        94466
#
# Disc length: 1704 seconds
#
# Revision: 1
# Processed by: cddbd v1.5.2PL0 Copyright (c) Steve Scherf et al.
# Submitted via: ExactAudioCopyFreeDBPlugin 1.0
#
DISCID=4d06a607
DTITLE=The Blues Intruders - Blue Oil
DYEAR=2000
DGENRE=Blues
TTITLE0=In The Dead Of The Heat
TTITLE1=She's Got That Stuff
TTITLE2=Extra Jimmies
TTITLE3=Shoulder Holster
TTITLE4=That's Where It's At
TTITLE5=Thank You, Sam
TTITLE6=Blue Oil
EXTD=
EXTT0=
EXTT1=
EXTT2=
EXTT3=
EXTT4=
EXTT5=
EXTT6=
PLAYORDER=
